<mxfile host="app.diagrams.net" agent="Mozilla/5.0 (X11; Linux x86_64; rv:140.0) Gecko/20100101 Firefox/140.0" version="28.0.9">
  <diagram name="Page-1" id="DSDrWIQ6XbVxNTstv51F">
    <mxGraphModel dx="885" dy="543" grid="1" gridSize="10" guides="1" tooltips="1" connect="1" arrows="1" fold="1" page="1" pageScale="1" pageWidth="850" pageHeight="1100" math="0" shadow="0">
      <root>
        <mxCell id="0" />
        <mxCell id="1" parent="0" />
        <mxCell id="wMoqFXHrRv4tjF4m6v5N-8" style="rounded=0;orthogonalLoop=1;jettySize=auto;html=1;exitX=1;exitY=0.5;exitDx=0;exitDy=0;entryX=0;entryY=0.5;entryDx=0;entryDy=0;fillColor=#0050ef;strokeColor=#001DBC;" edge="1" parent="1" source="wMoqFXHrRv4tjF4m6v5N-1" target="wMoqFXHrRv4tjF4m6v5N-5">
          <mxGeometry relative="1" as="geometry" />
        </mxCell>
        <mxCell id="wMoqFXHrRv4tjF4m6v5N-21" value="ω_{00}^{[L]}" style="edgeLabel;html=1;align=center;verticalAlign=middle;resizable=0;points=[];" vertex="1" connectable="0" parent="wMoqFXHrRv4tjF4m6v5N-8">
          <mxGeometry x="-0.0978" y="-2" relative="1" as="geometry">
            <mxPoint x="3" y="1" as="offset" />
          </mxGeometry>
        </mxCell>
        <mxCell id="wMoqFXHrRv4tjF4m6v5N-9" style="rounded=0;orthogonalLoop=1;jettySize=auto;html=1;exitX=1;exitY=0.5;exitDx=0;exitDy=0;entryX=0;entryY=0.5;entryDx=0;entryDy=0;fillColor=#0050ef;strokeColor=#001DBC;" edge="1" parent="1" source="wMoqFXHrRv4tjF4m6v5N-1" target="wMoqFXHrRv4tjF4m6v5N-6">
          <mxGeometry relative="1" as="geometry" />
        </mxCell>
        <mxCell id="wMoqFXHrRv4tjF4m6v5N-22" value="ω_{10}^{[L]}" style="edgeLabel;html=1;align=center;verticalAlign=middle;resizable=0;points=[];" vertex="1" connectable="0" parent="wMoqFXHrRv4tjF4m6v5N-9">
          <mxGeometry x="0.0001" y="-1" relative="1" as="geometry">
            <mxPoint as="offset" />
          </mxGeometry>
        </mxCell>
        <mxCell id="wMoqFXHrRv4tjF4m6v5N-10" style="rounded=0;orthogonalLoop=1;jettySize=auto;html=1;exitX=1;exitY=0.5;exitDx=0;exitDy=0;entryX=0;entryY=0.5;entryDx=0;entryDy=0;fillColor=#0050ef;strokeColor=#001DBC;" edge="1" parent="1" source="wMoqFXHrRv4tjF4m6v5N-1" target="wMoqFXHrRv4tjF4m6v5N-7">
          <mxGeometry relative="1" as="geometry" />
        </mxCell>
        <mxCell id="wMoqFXHrRv4tjF4m6v5N-23" value="ω_{20}^{[L]}" style="edgeLabel;html=1;align=center;verticalAlign=middle;resizable=0;points=[];" vertex="1" connectable="0" parent="wMoqFXHrRv4tjF4m6v5N-10">
          <mxGeometry x="0.0058" relative="1" as="geometry">
            <mxPoint x="1" as="offset" />
          </mxGeometry>
        </mxCell>
        <mxCell id="wMoqFXHrRv4tjF4m6v5N-1" value="a_0^{[L-1]}" style="ellipse;whiteSpace=wrap;html=1;aspect=fixed;fillColor=#0050ef;fontColor=#ffffff;strokeColor=#001DBC;" vertex="1" parent="1">
          <mxGeometry x="120" y="40" width="80" height="80" as="geometry" />
        </mxCell>
        <mxCell id="wMoqFXHrRv4tjF4m6v5N-11" style="rounded=0;orthogonalLoop=1;jettySize=auto;html=1;exitX=1;exitY=0.5;exitDx=0;exitDy=0;entryX=0;entryY=0.5;entryDx=0;entryDy=0;fillColor=#6a00ff;strokeColor=#3700CC;opacity=50;" edge="1" parent="1" source="wMoqFXHrRv4tjF4m6v5N-2" target="wMoqFXHrRv4tjF4m6v5N-5">
          <mxGeometry relative="1" as="geometry" />
        </mxCell>
        <mxCell id="wMoqFXHrRv4tjF4m6v5N-12" style="rounded=0;orthogonalLoop=1;jettySize=auto;html=1;exitX=1;exitY=0.5;exitDx=0;exitDy=0;entryX=0;entryY=0.5;entryDx=0;entryDy=0;fillColor=#6a00ff;strokeColor=#3700CC;opacity=50;" edge="1" parent="1" source="wMoqFXHrRv4tjF4m6v5N-2" target="wMoqFXHrRv4tjF4m6v5N-6">
          <mxGeometry relative="1" as="geometry" />
        </mxCell>
        <mxCell id="wMoqFXHrRv4tjF4m6v5N-13" style="rounded=0;orthogonalLoop=1;jettySize=auto;html=1;exitX=1;exitY=0.5;exitDx=0;exitDy=0;entryX=0;entryY=0.5;entryDx=0;entryDy=0;fillColor=#6a00ff;strokeColor=#3700CC;opacity=50;" edge="1" parent="1" source="wMoqFXHrRv4tjF4m6v5N-2" target="wMoqFXHrRv4tjF4m6v5N-7">
          <mxGeometry relative="1" as="geometry" />
        </mxCell>
        <mxCell id="wMoqFXHrRv4tjF4m6v5N-2" value="a_1^{[L-1]}" style="ellipse;whiteSpace=wrap;html=1;aspect=fixed;fillColor=#6a00ff;fontColor=#ffffff;strokeColor=#3700CC;opacity=50;" vertex="1" parent="1">
          <mxGeometry x="120" y="160" width="80" height="80" as="geometry" />
        </mxCell>
        <mxCell id="wMoqFXHrRv4tjF4m6v5N-14" style="rounded=0;orthogonalLoop=1;jettySize=auto;html=1;exitX=1;exitY=0.5;exitDx=0;exitDy=0;entryX=0;entryY=0.5;entryDx=0;entryDy=0;fillColor=#a20025;strokeColor=#6F0000;opacity=50;" edge="1" parent="1" source="wMoqFXHrRv4tjF4m6v5N-3" target="wMoqFXHrRv4tjF4m6v5N-5">
          <mxGeometry relative="1" as="geometry" />
        </mxCell>
        <mxCell id="wMoqFXHrRv4tjF4m6v5N-15" style="rounded=0;orthogonalLoop=1;jettySize=auto;html=1;exitX=1;exitY=0.5;exitDx=0;exitDy=0;entryX=0;entryY=0.5;entryDx=0;entryDy=0;fillColor=#a20025;strokeColor=#6F0000;opacity=50;" edge="1" parent="1" source="wMoqFXHrRv4tjF4m6v5N-3" target="wMoqFXHrRv4tjF4m6v5N-6">
          <mxGeometry relative="1" as="geometry" />
        </mxCell>
        <mxCell id="wMoqFXHrRv4tjF4m6v5N-16" style="rounded=0;orthogonalLoop=1;jettySize=auto;html=1;exitX=1;exitY=0.5;exitDx=0;exitDy=0;entryX=0;entryY=0.5;entryDx=0;entryDy=0;fillColor=#a20025;strokeColor=#6F0000;opacity=50;" edge="1" parent="1" source="wMoqFXHrRv4tjF4m6v5N-3" target="wMoqFXHrRv4tjF4m6v5N-7">
          <mxGeometry relative="1" as="geometry" />
        </mxCell>
        <mxCell id="wMoqFXHrRv4tjF4m6v5N-3" value="a_2^{[L-1]}" style="ellipse;whiteSpace=wrap;html=1;aspect=fixed;fillColor=#a20025;fontColor=#ffffff;strokeColor=#6F0000;opacity=50;" vertex="1" parent="1">
          <mxGeometry x="120" y="280" width="80" height="80" as="geometry" />
        </mxCell>
        <mxCell id="wMoqFXHrRv4tjF4m6v5N-17" style="rounded=0;orthogonalLoop=1;jettySize=auto;html=1;exitX=1;exitY=0.5;exitDx=0;exitDy=0;entryX=0;entryY=0.5;entryDx=0;entryDy=0;fillColor=#e51400;strokeColor=#B20000;opacity=50;" edge="1" parent="1" source="wMoqFXHrRv4tjF4m6v5N-4" target="wMoqFXHrRv4tjF4m6v5N-5">
          <mxGeometry relative="1" as="geometry" />
        </mxCell>
        <mxCell id="wMoqFXHrRv4tjF4m6v5N-18" style="rounded=0;orthogonalLoop=1;jettySize=auto;html=1;exitX=1;exitY=0.5;exitDx=0;exitDy=0;entryX=0;entryY=0.5;entryDx=0;entryDy=0;fillColor=#e51400;strokeColor=#B20000;opacity=50;" edge="1" parent="1" source="wMoqFXHrRv4tjF4m6v5N-4" target="wMoqFXHrRv4tjF4m6v5N-6">
          <mxGeometry relative="1" as="geometry" />
        </mxCell>
        <mxCell id="wMoqFXHrRv4tjF4m6v5N-19" style="rounded=0;orthogonalLoop=1;jettySize=auto;html=1;exitX=1;exitY=0.5;exitDx=0;exitDy=0;entryX=0;entryY=0.5;entryDx=0;entryDy=0;fillColor=#e51400;strokeColor=#B20000;opacity=50;" edge="1" parent="1" source="wMoqFXHrRv4tjF4m6v5N-4" target="wMoqFXHrRv4tjF4m6v5N-7">
          <mxGeometry relative="1" as="geometry" />
        </mxCell>
        <mxCell id="wMoqFXHrRv4tjF4m6v5N-4" value="a_3^{[L-1]}" style="ellipse;whiteSpace=wrap;html=1;aspect=fixed;fillColor=#e51400;fontColor=#ffffff;strokeColor=#B20000;opacity=50;" vertex="1" parent="1">
          <mxGeometry x="120" y="400" width="80" height="80" as="geometry" />
        </mxCell>
        <mxCell id="wMoqFXHrRv4tjF4m6v5N-5" value="&lt;font style=&quot;font-size: 15px;&quot;&gt;has delta: δ_0^{[L]}&lt;/font&gt;" style="ellipse;whiteSpace=wrap;html=1;aspect=fixed;" vertex="1" parent="1">
          <mxGeometry x="460" y="100" width="80" height="80" as="geometry" />
        </mxCell>
        <mxCell id="wMoqFXHrRv4tjF4m6v5N-6" value="&lt;div&gt;&lt;font style=&quot;font-size: 15px;&quot;&gt;has delta:&lt;/font&gt;&lt;/div&gt;&lt;div&gt;&lt;font style=&quot;font-size: 15px;&quot;&gt;δ_1^{[L]}&lt;/font&gt;&lt;/div&gt;" style="ellipse;whiteSpace=wrap;html=1;aspect=fixed;" vertex="1" parent="1">
          <mxGeometry x="460" y="220" width="80" height="80" as="geometry" />
        </mxCell>
        <mxCell id="wMoqFXHrRv4tjF4m6v5N-7" value="&lt;div&gt;&lt;font style=&quot;font-size: 15px;&quot;&gt;has delta:&lt;/font&gt;&lt;/div&gt;&lt;div&gt;&lt;font style=&quot;font-size: 15px;&quot;&gt;δ_2^{[L]}&lt;/font&gt;&lt;/div&gt;" style="ellipse;whiteSpace=wrap;html=1;aspect=fixed;" vertex="1" parent="1">
          <mxGeometry x="460" y="340" width="80" height="80" as="geometry" />
        </mxCell>
      </root>
    </mxGraphModel>
  </diagram>
</mxfile>
